<svg width="40" height="40" viewBox="0 0 40 40" fill="none" xmlns="http://www.w3.org/2000/svg">
<path d="M29.4948 37H10.5055C8.96461 37 7.71484 35.7502 7.71484 34.2094V5.79063C7.71484 4.24865 8.96461 3 10.5055 3H29.4936C31.0345 3 32.2843 4.24977 32.2843 5.79063C32.2843 7.33148 31.0345 8.58125 29.4936 8.58125H13.2972V31.4165H29.4948C31.0356 31.4165 32.2854 32.6663 32.2854 34.2071C32.2854 35.748 31.0356 37 29.4948 37Z" fill="#FF5E2B"/>
<path d="M28.5372 22.7907H10.5055C8.96461 22.7907 7.71484 21.541 7.71484 20.0001C7.71484 18.4581 8.96461 17.2095 10.5055 17.2095H28.5372C30.0781 17.2095 31.3278 18.4592 31.3278 20.0001C31.329 21.5421 30.0792 22.7907 28.5372 22.7907Z" fill="#FF5E2B"/>
</svg>
