<svg width="40" height="40" viewBox="0 0 40 40" fill="none" xmlns="http://www.w3.org/2000/svg">
<path d="M30.9207 37H13.102C11.3362 37 9.6988 36.5826 8.18983 35.7478C6.69691 34.9131 5.95045 33.4764 5.95045 31.4377C5.95045 29.5274 6.71296 28.1227 8.23799 27.2238C9.77906 26.3408 11.4004 25.8994 13.102 25.8994H24.1303C28.1275 25.8994 30.1261 24.3583 30.1261 21.2762C30.1261 19.7672 29.508 18.5954 28.272 17.7606C27.4533 17.2308 26.4419 16.966 25.238 16.966C23.9377 16.966 23.2875 16.5967 23.2875 15.8583C23.2875 15.1199 23.9377 14.7507 25.238 14.7507C26.6506 14.7507 27.7663 14.4055 28.585 13.7153C29.4358 12.9768 29.8612 12.0297 29.8612 10.8739C29.8612 9.01177 29.0345 7.59112 27.381 6.6119C25.7757 5.66477 23.5203 5.19119 20.6147 5.19119C17.645 5.19119 15.3334 5.60858 13.6799 6.44333C11.577 7.51887 10.381 8.90743 10.0921 10.609C11.1676 9.71008 12.5241 9.26061 14.1615 9.26061C16.136 9.26061 17.7734 9.80639 19.0737 10.898C20.5666 12.102 21.313 13.7795 21.313 15.9306C21.313 17.6803 20.687 19.1652 19.4349 20.3852C17.9901 21.83 16.0798 22.5524 13.704 22.5524C11.1034 22.5524 9.11287 21.6855 7.73232 19.9518C6.5123 18.4428 5.91835 16.4041 5.95045 13.8357C5.95045 11.6364 6.47217 9.72614 7.51561 8.1048C8.89615 5.93766 10.8305 4.5491 13.3187 3.93909C15.823 3.31303 18.255 3 20.6147 3C24.628 3 27.8305 3.70631 30.2224 5.11896C32.5822 6.4995 33.762 8.41781 33.762 10.8739C33.762 13.0571 32.6464 14.7186 30.415 15.8583C32.839 17.0944 34.051 18.9004 34.051 21.2762C34.051 23.973 32.9433 25.787 30.728 26.7181C28.5288 27.6331 26.3296 28.0906 24.1303 28.0906L13.102 28.0663C10.967 28.0663 9.89946 29.0054 9.89946 30.8836C9.89946 32.7458 10.967 33.6768 13.102 33.6768H30.9207C32.237 33.6768 32.8952 34.2307 32.8952 35.3383C32.8952 36.446 32.237 37 30.9207 37ZM13.7521 20.2648C16.128 20.2648 17.3159 18.8201 17.3159 15.9306C17.3159 13.041 16.128 11.5963 13.7521 11.5963C11.3763 11.5963 10.1884 13.033 10.1884 15.9065C10.1884 18.812 11.3763 20.2648 13.7521 20.2648Z" fill="#FF5E2B"/>
</svg>
